<svg id="visual" viewBox="0 0 900 200" width="900" height="200" xmlns="http://www.w3.org/2000/svg" xmlns:xlink="http://www.w3.org/1999/xlink" version="1.1"><rect x="0" y="0" width="900" height="200" fill="#fff"></rect><path d="M0 166L16.7 164.5C33.3 163 66.7 160 100 158.3C133.3 156.7 166.7 156.3 200 151.8C233.3 147.3 266.7 138.7 300 134.3C333.3 130 366.7 130 400 136.5C433.3 143 466.7 156 500 161.5C533.3 167 566.7 165 600 156.8C633.3 148.7 666.7 134.3 700 131.7C733.3 129 766.7 138 800 146.3C833.3 154.7 866.7 162.3 883.3 166.2L900 170L900 0L883.3 0C866.7 0 833.3 0 800 0C766.7 0 733.3 0 700 0C666.7 0 633.3 0 600 0C566.7 0 533.3 0 500 0C466.7 0 433.3 0 400 0C366.7 0 333.3 0 300 0C266.7 0 233.3 0 200 0C166.7 0 133.3 0 100 0C66.7 0 33.3 0 16.7 0L0 0Z" fill="#f8f8ff"></path><path d="M0 50L16.7 59.7C33.3 69.3 66.7 88.7 100 99.8C133.3 111 166.7 114 200 104.5C233.3 95 266.7 73 300 67.8C333.3 62.7 366.7 74.3 400 73C433.3 71.7 466.7 57.3 500 58.2C533.3 59 566.7 75 600 79.7C633.3 84.3 666.7 77.7 700 79C733.3 80.3 766.7 89.7 800 97C833.3 104.3 866.7 109.7 883.3 112.3L900 115L900 0L883.3 0C866.7 0 833.3 0 800 0C766.7 0 733.3 0 700 0C666.7 0 633.3 0 600 0C566.7 0 533.3 0 500 0C466.7 0 433.3 0 400 0C366.7 0 333.3 0 300 0C266.7 0 233.3 0 200 0C166.7 0 133.3 0 100 0C66.7 0 33.3 0 16.7 0L0 0Z" fill="#f8f8ff"></path><path d="M0 84L16.7 80.7C33.3 77.3 66.7 70.7 100 63.7C133.3 56.7 166.7 49.3 200 46C233.3 42.7 266.7 43.3 300 46.3C333.3 49.3 366.7 54.7 400 55C433.3 55.3 466.7 50.7 500 45.3C533.3 40 566.7 34 600 29.3C633.3 24.7 666.7 21.3 700 28.2C733.3 35 766.7 52 800 60.8C833.3 69.7 866.7 70.3 883.3 70.7L900 71L900 0L883.3 0C866.7 0 833.3 0 800 0C766.7 0 733.3 0 700 0C666.7 0 633.3 0 600 0C566.7 0 533.3 0 500 0C466.7 0 433.3 0 400 0C366.7 0 333.3 0 300 0C266.7 0 233.3 0 200 0C166.7 0 133.3 0 100 0C66.7 0 33.3 0 16.7 0L0 0Z" fill="#f8f8ff"></path></svg>