<svg id="visual" viewBox="0 0 900 200" width="900" height="200" xmlns="http://www.w3.org/2000/svg" xmlns:xlink="http://www.w3.org/1999/xlink" version="1.1"><rect x="0" y="0" width="900" height="200" fill="#f8f8ff"></rect><path d="M0 155L16.7 153.7C33.3 152.3 66.7 149.7 100 137.3C133.3 125 166.7 103 200 97.8C233.3 92.7 266.7 104.3 300 102.3C333.3 100.3 366.7 84.7 400 76.3C433.3 68 466.7 67 500 71.2C533.3 75.3 566.7 84.7 600 96.8C633.3 109 666.7 124 700 129.7C733.3 135.3 766.7 131.7 800 125C833.3 118.3 866.7 108.7 883.3 103.8L900 99L900 0L883.3 0C866.7 0 833.3 0 800 0C766.7 0 733.3 0 700 0C666.7 0 633.3 0 600 0C566.7 0 533.3 0 500 0C466.7 0 433.3 0 400 0C366.7 0 333.3 0 300 0C266.7 0 233.3 0 200 0C166.7 0 133.3 0 100 0C66.7 0 33.3 0 16.7 0L0 0Z" fill="#ffffff"></path><path d="M0 125L16.7 115.3C33.3 105.7 66.7 86.3 100 77.7C133.3 69 166.7 71 200 67.2C233.3 63.3 266.7 53.7 300 48C333.3 42.3 366.7 40.7 400 43.3C433.3 46 466.7 53 500 56.2C533.3 59.3 566.7 58.7 600 65.3C633.3 72 666.7 86 700 94C733.3 102 766.7 104 800 99.8C833.3 95.7 866.7 85.3 883.3 80.2L900 75L900 0L883.3 0C866.7 0 833.3 0 800 0C766.7 0 733.3 0 700 0C666.7 0 633.3 0 600 0C566.7 0 533.3 0 500 0C466.7 0 433.3 0 400 0C366.7 0 333.3 0 300 0C266.7 0 233.3 0 200 0C166.7 0 133.3 0 100 0C66.7 0 33.3 0 16.7 0L0 0Z" fill="#ffffff"></path><path d="M0 82L16.7 71.2C33.3 60.3 66.7 38.7 100 37C133.3 35.3 166.7 53.7 200 61.3C233.3 69 266.7 66 300 59.5C333.3 53 366.7 43 400 42.2C433.3 41.3 466.7 49.7 500 52C533.3 54.3 566.7 50.7 600 50.5C633.3 50.3 666.7 53.7 700 51.8C733.3 50 766.7 43 800 36.7C833.3 30.3 866.7 24.7 883.3 21.8L900 19L900 0L883.3 0C866.7 0 833.3 0 800 0C766.7 0 733.3 0 700 0C666.7 0 633.3 0 600 0C566.7 0 533.3 0 500 0C466.7 0 433.3 0 400 0C366.7 0 333.3 0 300 0C266.7 0 233.3 0 200 0C166.7 0 133.3 0 100 0C66.7 0 33.3 0 16.7 0L0 0Z" fill="#ffffff"></path></svg>